<svg xmlns="http://www.w3.org/2000/svg" viewBox="0 0 469.333 469.333"><path d="M426.667 42.667h-64v-32C362.667 4.77 357.897 0 352 0c-5.896 0-10.667 4.77-10.667 10.667v32h-192v-32C149.333 4.77 144.563 0 138.667 0S128 4.77 128 10.667v32H42.667C19.147 42.667 0 61.802 0 85.333v341.333c0 23.53 19.146 42.667 42.667 42.667H351.98v-.004l.02.003c2.772 0 5.5-1.083 7.543-3.125L466.21 359.54c2.034-2.04 2.708-4.766 2.71-7.54h.415V85.332c-.002-23.53-19.147-42.666-42.668-42.666zm-64 390.25V384c0-11.76 9.563-21.333 21.333-21.333h48.917l-70.25 70.25zM448 341.333h-64c-23.52 0-42.667 19.135-42.667 42.667v64H42.667c-11.77 0-21.333-9.573-21.333-21.333v-256H448v170.666zm0-192H21.333v-64C21.333 73.573 30.896 64 42.667 64H128v21.333c-11.77 0-21.333 9.573-21.333 21.333S116.23 128 128 128c11.77 0 21.333-9.573 21.333-21.333V64h192v21.333c-11.77 0-21.333 9.573-21.333 21.333S329.563 128 341.333 128s21.333-9.573 21.333-21.333V64h64C438.438 64 448 73.573 448 85.333v64z"/><path d="M192 362.667c-11.77 0-21.333-9.573-21.333-21.333 0-5.896-4.77-10.667-10.667-10.667-5.896 0-10.667 4.77-10.667 10.667C149.333 364.864 168.48 384 192 384c23.52 0 42.667-19.135 42.667-42.667 0-12.73-5.604-24.177-14.48-32 8.876-7.823 14.48-19.27 14.48-32 0-23.53-19.146-42.667-42.667-42.667-23.52 0-42.667 19.135-42.667 42.667 0 5.896 4.77 10.667 10.667 10.667 5.896 0 10.667-4.77 10.667-10.667 0-11.76 9.563-21.333 21.333-21.333 11.77 0 21.333 9.573 21.333 21.333 0 11.76-9.563 21.333-21.333 21.333-5.896 0-10.667 4.77-10.667 10.667 0 5.896 4.77 10.667 10.667 10.667 11.77 0 21.333 9.573 21.333 21.333S203.77 362.667 192 362.667zM266.687 256.02h.02l10.626-.01v117.324c0 5.896 4.77 10.667 10.667 10.667 5.896 0 10.667-4.77 10.667-10.666v-128c0-2.833-1.125-5.542-3.125-7.542s-4.708-3.125-7.542-3.125h-.02l-21.293.02c-5.896.01-10.667 4.782-10.667 10.678 0 5.885 4.772 10.656 10.667 10.656z"/></svg>