<svg xmlns="http://www.w3.org/2000/svg" viewBox="0 0 512 234.3" preserveAspectRatio="xMidYMax meet"><path d="M401 149a42.7 42.7 0 1 0 42.8 42.7A42.7 42.7 0 0 0 401 149zm0 68.3a25.6 25.6 0 1 1 25.7-25.6 25.6 25.6 0 0 1-25.6 25.6zM111 149a42.7 42.7 0 1 0 42.6 42.7A42.7 42.7 0 0 0 111 149zm0 68.3a25.6 25.6 0 1 1 25.5-25.6 25.6 25.6 0 0 1-25.6 25.6z"/><path d="M0 157.6v34a8.5 8.5 0 0 0 8.5 8.6h34.2a8.5 8.5 0 0 0 8.5-8.5 59.8 59.8 0 1 1 119.5 0 8.5 8.5 0 0 0 8.5 8.5h153.6a8.5 8.5 0 0 0 8.5-8.5 59.8 59.8 0 0 1 119.5 0 8.5 8.5 0 0 0 8.5 8.5h34a8.5 8.5 0 0 0 8.6-8.5v-34a8.5 8.5 0 0 0-8.6-8.6v-25.6C503.4 91 444.7 73 388 72.2 339 13 262.6-10 161 4h-.4c-55 9.7-80 39-98 69.6l-48.2 16A8.5 8.5 0 0 0 8.6 98V149a8.5 8.5 0 0 0-8.6 8.6zm119.4-85.4H83.6C93.2 58 104.2 46 119 36.8zm102.5 0h-85.6l-.4-43.7a141.8 141.8 0 0 1 27.4-7.6 388 388 0 0 1 58.4-4zm143 0H239V17.8c52.7 3.8 94.4 21.8 126 54.4zm-348 94a8.5 8.5 0 0 0 8.5-8.6V132H34a8.6 8.6 0 0 0 0-17h-8.4v-11l44-14.7H384c51.4 0 86.7 13 98.3 25.6H478a8.6 8.6 0 1 0 0 17h8.4v25.6a8.5 8.5 0 0 0 8.5 8.5v17.2h-17.6a76.8 76.8 0 0 0-152.7 0H187.3a76.8 76.8 0 0 0-152.7 0H17z"/></svg>