<svg xmlns="http://www.w3.org/2000/svg" viewBox="0 0 512 332.8" preserveAspectRatio="xMidYMax meet"><path d="M111 230.4a51.2 51.2 0 1 0 51 51.2 51.3 51.3 0 0 0-51-51.2zm0 85.3a34 34 0 1 1 34-34 34.2 34.2 0 0 1-34 34zM397 230.4a51.2 51.2 0 1 0 51 51.2 51.3 51.3 0 0 0-51-51.2zm0 85.3a34 34 0 1 1 34-34 34.2 34.2 0 0 1-34 34z"/><path d="M0 213.3V256a8.5 8.5 0 0 0 8.5 8.5h34.2a8.5 8.5 0 0 0 8.2-6 68.3 68.3 0 0 1 128.5.3 8.5 8.5 0 0 0 8 5.7h128.2a8.5 8.5 0 0 0 8.5-8.5v-25.6h25.6a8.5 8.5 0 0 0 5.4-2c10.7-8.5 32.3-15 50.2-15a68.4 68.4 0 0 1 64.4 45.4 8.5 8.5 0 0 0 8 5.7h25.6a8.5 8.5 0 0 0 8.5-8.5v-94a8.6 8.6 0 0 0-1.5-4.6l-51.2-76.8a8.5 8.5 0 0 0-7-3.8H349.8a8.5 8.5 0 0 0-8.6 8.5v128h-17V34A34.2 34.2 0 0 0 290 0H25.6A8.5 8.5 0 0 0 17 8.5v196.3H8.6a8.5 8.5 0 0 0-8.5 8.5zm487.5-59.7h-95V94h55.2zM358.5 94h17V162a8.5 8.5 0 0 0 8.5 8.5h111v17h-8.6a8.6 8.6 0 1 0 0 17.2h8.5v42.6h-11.3a85.5 85.5 0 0 0-78.2-51.2c-13.5 0-32 3.3-47 10.4zM17 247.4V222h8.6a8.5 8.5 0 0 0 8.5-8.6v-25.7h8.6a8.6 8.6 0 0 0 0-17H34V17h256a17 17 0 0 1 17.2 17.2v213.3h-114a85.4 85.4 0 0 0-156.4 0H17z"/></svg>