<svg xmlns="http://www.w3.org/2000/svg" viewBox="0 0 511.9 458.3"><path d="M183.6 52.3a8.7 8.7 0 0 0 8.6-8.6v-35a8.6 8.6 0 0 0-17.2-.2v35a8.6 8.6 0 0 0 8.6 8.7zm-77.4 14.4a8.5 8.5 0 0 0 7.4 4.3 8.3 8.3 0 0 0 4.3-1.3 8.5 8.5 0 0 0 3-11.7l-17.6-30.4a8.7 8.7 0 0 0-11.7-3.2 9 9 0 0 0-3.2 11.8L106 66.6zm-78.5 36.8L58 121a10.4 10.4 0 0 0 4.4 1 8.6 8.6 0 0 0 7.5-4 8.6 8.6 0 0 0-3.4-12L36.2 88.7a8.6 8.6 0 0 0-11.7 3 9 9 0 0 0 3 12zM8.7 192h35a8.6 8.6 0 1 0 0-17h-35a8.6 8.6 0 1 0 0 17zm16 83.3a8.6 8.6 0 0 0 7.4 4.3 10.4 10.4 0 0 0 4.4-1L66.8 261a8.6 8.6 0 0 0 3.2-12 8.8 8.8 0 0 0-12-3l-30.3 17.6a8.5 8.5 0 0 0-3 11.7zm280-153.2a9 9 0 0 0 4.3-1l30.4-17.5a8.6 8.6 0 0 0 3-11.8 8.3 8.3 0 0 0-11.6-3L300.4 106a9 9 0 0 0-3.2 12 8.6 8.6 0 0 0 7.5 4.2zM249.2 70a8.4 8.4 0 0 0 11.7-3.2l17.4-30.4a8.7 8.7 0 0 0-3-11.8 9 9 0 0 0-12 3.2L246 58a8.6 8.6 0 0 0 3.2 11.8z"/><path d="M385 441H90c-40 0-72.8-32.7-72.8-73a73 73 0 0 1 73-73 82 82 0 0 1 18.3 2.5 8.4 8.4 0 0 0 9.2-3.4 58.7 58.7 0 0 1 9-10h.2a13.7 13.7 0 0 1 2-2l.5-.5 2.4-1.7a42 42 0 0 1 5.8-3.6l3-1.4a33 33 0 0 1 6.2-2.3h.2l3-1h.3l2.7-.6 1.8-.4 1.6-.3h2.3l1-.2h7.7a27.5 27.5 0 0 1 7 1h.3a14.3 14.3 0 0 1 3.2.8h.5l3.3 1 1.2.4h2.8l.7-.2h.3l.7-.3a.4.4 0 0 0 .3-.2 2.6 2.6 0 0 0 1-.4 11.2 11.2 0 0 0 2-1.7 7 7 0 0 0 2-4l.2-.2.8-3.4.6-2 .5-1.7 1-2.8a.8.8 0 0 1 .3-.5 100 100 0 0 1 74.4-65h.6a93.3 93.3 0 0 1 19.2-2 15 15 0 0 1 3 .2h2.8a99.7 99.7 0 0 1 52.8 19 8.7 8.7 0 0 0 12-2 8.4 8.4 0 0 0-2-12 114.7 114.7 0 0 0-54.2-21.5 126 126 0 0 0-4-22.2 123.3 123.3 0 0 0-44.3-64 121.4 121.4 0 0 0-145.6 0 123.3 123.3 0 0 0-44.4 64 125.8 125.8 0 0 0-4.6 33.3v7.6l.2.4v1.8l.2 1.2v.2a7.5 7.5 0 0 0 .2 2v1.3l.4 1.8a3.2 3.2 0 0 0 .2 1.4 13.8 13.8 0 0 0 .3 2l.2 1.3.3 1.8v.3a3 3 0 0 0 .3 1 9.7 9.7 0 0 0 .3 1.8v.6a1.7 1.7 0 0 1 .3 1 8 8 0 0 0 .3 2l.3 1 .6 2.4.2.7 1 3v.7l.2.2.7 2 .3 1v.4l.7 1.6.3 1 .2.2a4.8 4.8 0 0 0 .5 1.7l.5 1.2.7 1.6.5 1v.3l.8 1.7.6 1.2.8 1.5.6 1.3.8 1.6v.2a3.3 3.3 0 0 1 .6 1l1 1.5v.4l.5.8a8 8 0 0 0 1 1.8l.5.8L81 249l.3.5 1.5 2.2.7 1 1 1.5.6 1h.4l1 1.6.8 1a8.7 8.7 0 0 1 1.3 1.5l.7 1 1.2 1.4.8 1 1.2 1.4.8 1 1.3 1.4.8 1 1.5 1.4.2.2.6.6 1.6 1.6.5.6 2 2h.2l2.2 2 .3.3c1 1 2.3 2 3.5 3l-.7 1a95 95 0 0 0-17-1.7 90 90 0 0 0 0 180h295a8.5 8.5 0 0 0 8.6-8.5 8.7 8.7 0 0 0-8.7-8.6zM225 191.4s0 .2-.3.3a.4.4 0 0 0-.3.2l-3.5 2.5h-.3l-4 3a21.4 21.4 0 0 1-3.2 2.8v.4a115.3 115.3 0 0 0-35 53.6 23 23 0 0 0-3.6-.7 66.3 66.3 0 0 0-11-.8h-4.6l-1.4.2h-.6a1.6 1.6 0 0 0-1 .2h-2.2l-2 .3h-.2l-2-.8-.4-.3-2.2-1-.3-.3a17 17 0 0 0-2.2-1.4l-.5-.3-2-1.3h-.4l-2.3-1.6-.5-.4-1.8-1.4-.4-.3-2-1.6-.6-.5-1.8-1.5-.3-.3-2-2-.3-.3c-.6-.3-1-1-1.6-1.4l-.3-.4a12 12 0 0 1-1.7-2l-.8-.6v-.2l-.4-.4a77.2 77.2 0 0 1-12-20v-.3l-1-2v-.5l-1-2v-1l-1-2.6a84.7 84.7 0 0 1-2-9.3l-.3-2-.2-1.7a70.3 70.3 0 0 1-.4-8v-3.2a11 11 0 0 1 .3-2.5 11 11 0 0 1 .2-2.7v-.7l1-5v-.7l1-5 .3-.7 1.5-5 .2-.4 2-4.8v-.6l2.3-4.5.2-.5a44 44 0 0 1 2.5-4.3l.3-.4 3-4.3A80.7 80.7 0 0 1 132 127l1.5-1.4 5.6-4.4.8-.5h.2c.2-.2.3-.4.6-.5l.8-.5.8-.5.8-.5.6-.4c.4 0 .6-.3.8-.4l1.6-1c.3 0 .5-.3.8-.5l.8-.4 1.6-1a1 1 0 0 0 .7 0l3.5-1.8 1-.4 1.3-.6 1-.4a1.5 1.5 0 0 0 .7-.3l4.4-1.4 1-.3.6-.2a3 3 0 0 0 1-.3h1a1 1 0 0 1 .8-.3l1-.3 1-.2a1 1 0 0 0 .7-.2l2-.2h2c0-.3.5-.3 1-.4h.7l1-.2h1l1.8-.2h1l2.8-.2h4l2.8.2h1l2 .2h1l1 .2h.6a3 3 0 0 0 1 .3h.8a3.8 3.8 0 0 0 1 .2l1.8.3a3 3 0 0 0 1 .3 1.3 1.3 0 0 1 .8.2l1 .2 1 .2h.7l1 .4.8.2 1 .3 4.3 1.3a2 2 0 0 1 .8.3l1 .3 1.4.6a2 2 0 0 1 .8.2l3.4 1.5h.3l.6.4 1.7 1 .8.3.7.4 1.6 1c.3 0 .6.3.8.4l.8.6.8.5c.2 0 .4.4.7.6l1 .5.4.5 1 .6c0 .3.3.5.5.6l4.5 3.7 1.7 1.4a76.4 76.4 0 0 1 10.4 11.7l3 4.3.2.5 2.4 4.3.3.6a42.8 42.8 0 0 1 2 4.5l.4.6 2 4.7v.6a26.6 26.6 0 0 1 1.5 5l.2.4a44.2 44.2 0 0 1 1 5 .7.7 0 0 1 .2.6 47 47 0 0 1 .7 5v.7s0 .3.2.4a116 116 0 0 0-35 16zm-117.4 64l-.7-1-1.3-1-.7-1-1-1c0-.3-.4-.6-.6-1l-1-1-.7-1-1-1.2-.6-.7a3.5 3.5 0 0 0-1-1.2l-.4-1-1-1-.5-1-1-2-.3-.2-1.4-2.2-.5-.7-1-1.7-.4-1-.8-1.3-.5-1-.6-1.5-.5-1-.8-1.3a1.5 1.5 0 0 0-.4-1l-.6-1.5-.5-1-.6-1.5-.4-1-.5-1.5-.3-1-.6-1.5-.3-1-.6-2v-.6l-1-2.6v-.6l-.6-2-.2-1a12.2 12.2 0 0 0-.3-1.7l-.4-1.2a5.8 5.8 0 0 0-.3-1.4v-1l-.4-1.6-.3-1a4.7 4.7 0 0 0-.2-1.7l-.2-1.2a4 4 0 0 0-.2-1.5v-1.3L80 193v-1.2a4 4 0 0 0-.2-1.5v-3l-.2-1v-2.8a104.2 104.2 0 0 1 42-83.6A105 105 0 0 1 288 171.4h-1l-2.5.2a10.6 10.6 0 0 0-2.5.2 8.6 8.6 0 0 0-2.3 0 9 9 0 0 0-2.3.3l-1-6a1.6 1.6 0 0 0-.2-1l-1.4-6a1 1 0 0 0-.2-.8c-.5-2-1.2-4-1.8-5.8l-.3-.8-2-5.8-.4-.6c-.7-1.8-1.6-3.7-2.6-5.5l-.4-.6-3-5.3-.4-.5-3.6-5.3a104.2 104.2 0 0 0-12.6-14h-.2l-1-1-.5-.5c-.2 0-.3-.3-.5-.4l-3-2.3-.8-.7-1.8-1.3-.8-.6-1-.6-.8-.6-1-.6-1-.7-.7-.6-1-.6-1-.6-2-1a2 2 0 0 0-1-.6l-1-.6-1.8-1-1-.4-2.3-1.2-1-.3-1-.5a2 2 0 0 1-1-.3l-2-.7-.6-.3h-.4a2.4 2.4 0 0 0-1-.5l-1-.3-.3-.3-1-.2h-.4l-.5-.3-1-.2-1-.4-1.3-.4-1-.2-1.2-.3-1-.2-1.2-.3-1-.3-1.2-.3a1.8 1.8 0 0 1-1-.3l-1.6-.3-.6-.2a1.5 1.5 0 0 1-1-.2c-.5 0-1 0-1.2-.2h-1.3l-1-.3H193l-2.4-.3h-1l-1.4-.2h-10.6l-1.2.2-2.3.2h-2l-1 .3h-1.3l-1 .3a2.5 2.5 0 0 0-1.3.2l-2.2.4-1 .2a4.2 4.2 0 0 0-1.3.3l-1 .3c-.6 0-1 0-1.3.2a3 3 0 0 0-1 .3 4.2 4.2 0 0 0-1.3.3l-1 .4-1.2.4-1 .3-1 .5h-.2l-.8.4c-.3 0-.5 0-.8.2l-.4.2a2 2 0 0 0-1 .2l-1 .4h-.3l-.7.4-1.7.7c-.4 0-.7.4-1 .5l-1.3.7c-.3 0-.5.2-.8.3l-1.2.6-1 .6v.2c-.4 0-.7.3-1 .4l-2 1-1 .5a2.6 2.6 0 0 1-1 .7l-1.7 1-1 .7-1 .6c-.2 0-.6.4-1 .6l-.8.6-1 .6-.7.5-1 .6-.8.6-2 1.4a3 3 0 0 1-.8.7l-2.8 2.4-.5.5-1 .6-1 1a89.6 89.6 0 0 0-12.6 14.2c-1.2 1.6-2.4 3.4-3.5 5.2l-.5.6-3 5.3-.4.7a53.6 53.6 0 0 0-2.5 5.4l-.3.8L95 152l-.2.8-2 6v.7l-1.5 6v.8a44.4 44.4 0 0 0-1 6.2l-.2.8a18.3 18.3 0 0 1 0 3.2v3.2l-.3.8v3.2a61 61 0 0 0 .5 9.6 12 12 0 0 0 .3 2 10.3 10.3 0 0 0 .4 2.7 86.8 86.8 0 0 0 2.3 11.5 14.3 14.3 0 0 1 1 3.3l.4.8 1 2.6.2.6 1 2.8.2.4a91.3 91.3 0 0 0 14.3 23.7c0 .2.2.3.4.5l.5.7.3.3.4.5 2.2 2.4.4.4 2 2 .6.5 2.4 2.3.4.4 2 1.8.7.5a25.6 25.6 0 0 1 2.5 2l.4.3 2.3 1.7.7.5.4.3-1 .6c-2.4 1.3-4.7 2.7-7 4.2v.2l-1.5 1c-1.8-1.4-3.6-2.8-5-4.2h-.3a17 17 0 0 0-2-1.8l-2-2-.5-.4-1.3-1.3-.8-.5-1.2-1.2z"/><path d="M422.8 280a80.8 80.8 0 0 0-15.6 1.3 117 117 0 0 0-26-66.6 8.6 8.6 0 0 0-12-1.2 8.4 8.4 0 0 0-1.3 12 100.6 100.6 0 0 1 22 63v3.4a7.7 7.7 0 0 0 3.4 7 8.4 8.4 0 0 0 7.8 1.4A72 72 0 1 1 422.7 441h-6.2a8.6 8.6 0 0 0-8.6 8.6 8.7 8.7 0 0 0 8.5 8.6h6.2c49.2 0 89.2-40 89.2-89a89.3 89.3 0 0 0-89.3-89.2z"/></svg>