<svg xmlns="http://www.w3.org/2000/svg" viewBox="0 0 512 238.8" preserveAspectRatio="xMidYMax meet"><path d="M401.1,290.1a42.7,42.7,0,1,0,42.7,42.7A42.7,42.7,0,0,0,401.1,290.1Zm0,68.3a25.6,25.6,0,1,1,25.6-25.6A25.6,25.6,0,0,1,401.1,358.3Z" transform="translate(0 -136.6)"/><path d="M119.5,290.1a42.7,42.7,0,1,0,42.7,42.7A42.7,42.7,0,0,0,119.5,290.1Zm0,68.3a25.6,25.6,0,1,1,25.6-25.6A25.6,25.6,0,0,1,119.5,358.3Z" transform="translate(0 -136.6)"/><path d="M0,290.1v34.1a8.5,8.5,0,0,0,2.5,6l8.5,8.5a8.5,8.5,0,0,0,6,2.5H42.7a8.5,8.5,0,0,0,8.5-8.5,59.7,59.7,0,1,1,119.5,0,8.5,8.5,0,0,0,8.5,8.5H324.3a8.5,8.5,0,0,0,8.5-8.5,59.7,59.7,0,0,1,119.5,0,8.5,8.5,0,0,0,8.5,8.5h34.1a8.5,8.5,0,0,0,8.5-8.5V319.2l6-6a8.5,8.5,0,0,0,2.5-6V290.1a8.5,8.5,0,0,0-2.5-6l-6.2-6.2c-3.1-32.6-47.2-58.4-106-63.5-50.9-59.5-81-78.7-226.7-77.6a8.5,8.5,0,0,0-8.5,8.5v68.1H17.1a8.5,8.5,0,0,0-8.5,8.5V278l-6,6A8.5,8.5,0,0,0,0,290.1Zm247.5-76.8H179.2V153.7c26.6,0,49.2.7,68.3,2.2Zm126.3,0H264.5V157.6C321.7,164.7,345.6,181.9,373.8,213.3ZM17.1,320.7V293.6l6-6a8.5,8.5,0,0,0,2.5-6V264.5h8.5a8.5,8.5,0,0,0,0-17.1H25.6V230.3H375.5c42.9,0,76.6,11.1,95.2,25.6h-1.1a8.7,8.7,0,0,0-8.7,8.4,8.5,8.5,0,0,0,8.4,8.7l15.6.3a22.8,22.8,0,0,1,1.7,8.2,8.5,8.5,0,0,0,2.5,6l6,6v10l-6,6a8.5,8.5,0,0,0-2.5,6v8.5H468.9a76.8,76.8,0,0,0-152.7,0H187.3a76.8,76.8,0,0,0-152.7,0h-14l-3.5-3.5Z" transform="translate(0 -136.6)"/></svg>