<svg xmlns="http://www.w3.org/2000/svg" viewBox="0 0 591.9 276.1" preserveAspectRatio="xMidYMax meet"><path d="M481.1,190.7h0m42.7,42.7-85.4,0,68.3,0M199.5,190.7h0m42.7,42.7-85.4,0M80,190.7v34.1a8.5,8.5,0,0,0,2.5,6l8.5,8.5a8.5,8.5,0,0,0,6,2.5h25.7a8.5,8.5,0,0,0,8.5-8.5,59.7,59.7,0,1,1,119.5,0,8.5,8.5,0,0,0,8.5,8.5H404.3a8.5,8.5,0,0,0,8.5-8.5,59.8,59.8,0,0,1,119.5,0,8.5,8.5,0,0,0,8.5,8.5h34.1a8.5,8.5,0,0,0,8.5-8.5V219.8l6-6a8.5,8.5,0,0,0,2.5-6V190.7a8.5,8.5,0,0,0-2.5-6l-6.2-6.2c-3.1-32.6-47.2-58.4-106-63.5-50.9-59.5-81-78.7-226.7-77.6a8.5,8.5,0,0,0-8.5,8.5V114H97.1a8.5,8.5,0,0,0-8.5,8.5v56.1l-6,6A8.5,8.5,0,0,0,80,190.7Zm247.5-76.8H259.2V54.3c26.6,0,49.2.7,68.3,2.2Zm126.3,0H344.5V58.2C401.7,65.3,425.6,82.5,453.8,113.9ZM97.1,221.3V194.2l6-6a8.5,8.5,0,0,0,2.5-6V165.1h8.5a8.6,8.6,0,0,0,0-17.1h-8.5V130.9H455.5c42.9,0,76.6,11.1,95.2,25.6h-1.1a8.7,8.7,0,0,0-8.7,8.4,8.5,8.5,0,0,0,8.3,8.7h.1l15.6.3a22.8,22.8,0,0,1,1.7,8.2,8.5,8.5,0,0,0,2.5,6l6,6v10l-6,6a8.5,8.5,0,0,0-2.5,6v8.5H548.9a76.8,76.8,0,0,0-152.7,0H267.3a76.8,76.8,0,0,0-152.7,0h-14l-3.5-3.5Z"/><polygon points="242.2 122.2 34.5 8.5 161.5 122.5 242.2 122.2" fill="none" stroke="currentColor" stroke-linecap="round" stroke-linejoin="round" stroke-width="17"/><path d="M8.5,92.5c0,31,26,30,26,30s25,0,25-26-25-26-25-26V8.5" fill="none" stroke="currentColor" stroke-linecap="round" stroke-linejoin="round" stroke-width="17"/><path d="M199.7,208.1a25.5,25.5,0,1,1-25.5,25.5,25.5,25.5,0,0,1,25.5-25.5m0-17a42.5,42.5,0,1,0,42.5,42.5,42.5,42.5,0,0,0-42.5-42.5Z"/><path d="M480.7,208.1a25.5,25.5,0,1,1-25.5,25.5,25.5,25.5,0,0,1,25.5-25.5m0-17a42.5,42.5,0,1,0,42.5,42.5,42.5,42.5,0,0,0-42.5-42.5Z"/></svg>