<svg xmlns="http://www.w3.org/2000/svg" viewBox="0 0 512 403.8"><path d="M503.3 387H394v-52c24-3 45-18 57.4-40.6a75.7 75.7 0 0 0 42-27 86.4 86.4 0 0 0 18.6-53.7c0-30-15.4-57.8-39.5-72.2-2.5-50-41-90-88-90A83.3 83.3 0 0 0 342 63.3a8.4 8.4 0 1 0 8.7 14.5 66.4 66.4 0 0 1 33.7-9.3c39.3 0 71.3 35 71.3 78a8.4 8.4 0 0 0 4.6 7.6c21 10.7 34.8 34 34.8 59.6 0 32.2-21.7 60-50.7 65a8.4 8.4 0 0 0-6.2 4.6c-9 18.8-25.3 31.5-44 34.8v-74.6l41.6-38.2a8.4 8.4 0 0 0-11.4-12.4l-30 27.7v-56.3a8.4 8.4 0 1 0-17 0v102l-30-27.6a8.4 8.4 0 1 0-11.5 12.4l41.5 38.2v29.3c-20-2.6-37.4-15.7-46.8-35.6a8.4 8.4 0 0 0-6-4.7c-28-6-48.2-33-48.2-64.4 0-24.8 12.5-47.2 32.6-58.5a8.4 8.4 0 0 0 4.3-7.5v-.7-.4a82.5 82.5 0 0 1 15-48 8.5 8.5 0 0 0-13.7-10 99 99 0 0 0-18 54.3c-23 15-37 41.5-37 70.6 0 37.7 24 70.6 57.7 79.8 12.7 23.8 35 39.3 60.3 41.7V387H372a53.4 53.4 0 0 0-37.3-48 50 50 0 0 0-34.5-27.4 50 50 0 0 0-92.2-13.8 51.5 51.5 0 0 0-41.7 24.2 42.3 42.3 0 0 0-36.5-27.6V272c22.8-3 43-17.3 54.7-39a73 73 0 0 0 40.4-25.8 83 83 0 0 0 17.7-51.7c0-28.8-14.7-55.4-38-69.3-2.4-48-39.5-86.3-84.6-86.3a80 80 0 0 0-48 16 8.5 8.5 0 1 0 10 13.7A63.4 63.4 0 0 1 120 17c37.5 0 68 33.3 68 74.3a8.4 8.4 0 0 0 4.6 7.5c20 10.2 33 32.5 33 56.8 0 30.7-20.7 57.2-48.2 61.8a8.4 8.4 0 0 0-6.2 4.7c-8.5 17.8-24 29.8-41.5 33v-70.8l39.6-36.4a8.4 8.4 0 0 0-11.3-12.5l-28.2 26v-53a8.4 8.4 0 1 0-17 0V205l-28-26a8.4 8.4 0 1 0-11.5 12.5L113 228v27.3c-19-2.6-35.4-15-44.3-34a8.4 8.4 0 0 0-6-4.5c-26.5-5.7-46-31.4-46-61.3 0-23.6 12-45 31-55.6a8.4 8.4 0 0 0 4.4-7.5v-.7-.4a80.3 80.3 0 0 1 5.8-30 77.7 77.7 0 0 1 4-8.2 8.4 8.4 0 0 0-15-8 94.5 94.5 0 0 0-4.6 10 96.7 96.7 0 0 0-7 32.7C13.5 102 0 127.6 0 155.5c0 36.3 23 68 55.3 76.8 12 22.8 33.5 37.5 57.6 40v24a42 42 0 0 0-22.3 18.3A43 43 0 0 0 50.5 351 54.3 54.3 0 0 0 20 387H8.3a8.4 8.4 0 0 0 0 16.8h495a8.4 8.4 0 1 0 0-17zm-465.7 0A37.4 37.4 0 0 1 61 365a8.4 8.4 0 0 0 5.7-7.8 26.4 26.4 0 0 1 26.5-25.7h2a8.4 8.4 0 0 0 8.4-5 25 25 0 0 1 48.2 7.6 8.4 8.4 0 0 0 7.8 8 25 25 0 0 1 6.6 1.4l1.2.5h.2l1 .4.5.2 1.5.8.8.5.5.3.8.6.5.2 1 .8.4.2a25.2 25.2 0 0 1 2.3 2.4l.2.2.8 1 .2.3a25 25 0 0 1 1.8 3l.2.3.5 1 .2.5.6 1.5a8.4 8.4 0 0 0 6.2 5.4l2.2.6.7.2 1.4.5.8.3 1.3.6.7.3 1 .7 1 .5 1 .7.7.6 1 .8.7.6 1 1 .7.6 1 1.2.5.5 1.3 1.8.2.4 1 1.5.3.7.6 1.2.4.8.5 1.2.3 1 .4 1.2.2 1 .3 1.2.2 1v.3H37.5zm188.3 0v-.3l-.5-3v-.2l-.6-3-1-3v-.2l-1-2.7v-.4l-1.3-2.6-.2-.4-1.3-2.5-.2-.4-1.5-2.4-.2-.4-1.8-2.4-2-2.3-2.2-2.3-.2-.2-2-2h-.4l-2.3-1.8-.4-.3-2.5-1.5-.4-.3-2.4-1.4-.4-.2-2.7-1h-.2l-3-1.2v-.3l-1-2-.6-1-.7-1.2-1-1.4-.7-1-1-1.2-.5-.7-2.2-2.4-.4-.4-1.2-1-.7-.7-1.2-1-.8-.7-1-.8-1.7-1-.4-.4a34.7 34.7 0 0 1 30-17h2.5a8.4 8.4 0 0 0 8.4-5 33 33 0 0 1 63.2 10 8.4 8.4 0 0 0 7.8 8 33 33 0 0 1 28.4 21.5 8.4 8.4 0 0 0 6.2 5.5A36.4 36.4 0 0 1 355 387H226z"/></svg>