<svg xmlns="http://www.w3.org/2000/svg" viewBox="0 0 512 229.4" preserveAspectRatio="xMidYMax meet"><path d="M401 144a42.7 42.7 0 1 0 42.6 42.7A42.8 42.8 0 0 0 401 144zm0 68.3a25.6 25.6 0 1 1 25.5-25.6 25.7 25.7 0 0 1-25.6 25.6zM110.4 144a42.7 42.7 0 1 0 42.8 42.7 42.8 42.8 0 0 0-42.8-42.7zm0 68.3a25.6 25.6 0 1 1 25.7-25.6 25.7 25.7 0 0 1-25.6 25.6z"/><path d="M9.7 191a8.6 8.6 0 0 0 7.4 4.3H43a8.5 8.5 0 0 0 8.5-8.5 59.8 59.8 0 0 1 119.6 0 8.5 8.5 0 0 0 8.4 8.5h153.8a8.5 8.5 0 0 0 8.5-8.5 59.8 59.8 0 0 1 119.6 0 8.5 8.5 0 0 0 8.5 8.5h25.6a8.5 8.5 0 0 0 8.2-6.3c18.4-66.7.3-106.7-.5-108.4a8.5 8.5 0 0 0-7-5l-108.6-8.2L321 17.6C318.5 16 263.7-20 49.6 16a8.6 8.6 0 0 0-5.7 3.7l-34.6 52a8.7 8.7 0 0 0-.6 1.6 18.5 18.5 0 0 0-.5 2.4v40.6C4.3 125-9 157.6 9.7 191zM150 20l-26.7 47H33l23.4-34.8c35.7-6 66.7-9.8 93.7-12zm72.2-2.8v50H143l26.8-47a8.4 8.4 0 0 0 .5-1.6c19.8-1.2 37-1.6 52-1.4zm136.7 50H239V17.6c54 2.7 71.8 13.6 72 13.7zM24.5 122.4a8.6 8.6 0 0 0 1-4.2h8.6a8.6 8.6 0 0 0 0-17h-8.5v-17h358.8l105 8a114 114 0 0 1 3.8 17.5H487a8.6 8.6 0 1 0 0 17h7.7a189.4 189.4 0 0 1-5.7 51.4h-11a77 77 0 0 0-152.8 0H187.5a77 77 0 0 0-152.8 0H22.4c-12.8-28 1.5-54.5 2.2-55.7z"/></svg>