<svg xmlns="http://www.w3.org/2000/svg" viewBox="0 0 512 256" preserveAspectRatio="xMidYMax meet"><path d="M392.5 170.7a42.7 42.7 0 1 0 42.7 42.7 42.7 42.7 0 0 0-42.7-42.7zm0 68.3a25.6 25.6 0 1 1 25.6-25.6 25.6 25.6 0 0 1-25.5 25.5z"/><path d="M0 170.7v17a8.5 8.5 0 0 0 2.5 6l6 6v13.6a8.5 8.5 0 0 0 8.5 8.5h34.2a8.5 8.5 0 0 0 8.5-8.5 59.8 59.8 0 1 1 119.5 0 8.5 8.5 0 0 0 8.5 8.5h136.6a8.5 8.5 0 0 0 8.5-8.5 59.8 59.8 0 0 1 119.5 0 8.5 8.5 0 0 0 8.5 8.5h34a8.5 8.5 0 0 0 8.6-8.5v-13.5l6-6a8.5 8.5 0 0 0 2.5-6v-17a8.5 8.5 0 0 0-2.6-6l-6.2-6.3c-2.6-37.2-18.7-56-36-70.4L408 3.8a8.5 8.5 0 0 0-7-3.6H17a8.5 8.5 0 0 0-8.4 8.6v150l-6 6a8.5 8.5 0 0 0-2.6 6zm444.4-85.3h-120V17h72.3zM17 174.2l6-6a8.5 8.5 0 0 0 2.6-6v-17H34a8.6 8.6 0 0 0 0-17.2h-8.4V17h281.6v77a8.5 8.5 0 0 0 8.5 8.4h142c8.8 7.5 15.8 15.4 20.8 25.6h-9.2a8.6 8.6 0 0 0 0 17h15a107.7 107.7 0 0 1 2 17.6 8.5 8.5 0 0 0 2.6 5.6l6 6v10l-6 6a8.5 8.5 0 0 0-2.6 6v8.5H469a76.8 76.8 0 0 0-152.7 0H195.8a76.8 76.8 0 0 0-152.6 0H25.6v-8.5a8.5 8.5 0 0 0-2.5-6l-6-6z"/><path d="M119.5 170.7a42.7 42.7 0 1 0 42.7 42.7 42.7 42.7 0 0 0-42.7-42.7zm0 68.3a25.6 25.6 0 1 1 25.6-25.6 25.6 25.6 0 0 1-25.5 25.5z"/></svg>