<svg xmlns="http://www.w3.org/2000/svg" viewBox="0 0 512 512"><path d="M503.6 329.2a22.3 22.3 0 0 0-27.5-.3 207 207 0 0 1-126.7 42.7 211 211 0 0 1-26-1.6 8.6 8.6 0 1 0-2 17.2 228.3 228.3 0 0 0 28 1.7 224.2 224.2 0 0 0 137.2-46.5 5 5 0 0 1 7.7 6.2 250 250 0 0 1-227.2 146c-137.7 0-249.8-112-249.8-249.7a250 250 0 0 1 146-227.3 5 5 0 0 1 6.2 7.7A224.2 224.2 0 0 0 123 162.6C123 264.2 191.5 354 289.5 381a8.6 8.6 0 0 0 4.5-16.7c-90.6-24.8-154-107.8-154-201.7A207.2 207.2 0 0 1 183 36a22.3 22.3 0 0 0-27-34A267 267 0 0 0 0 245c0 147.2 119.8 267 267 267a267 267 0 0 0 243-156 22.3 22.3 0 0 0-6.4-26.8z"/></svg>