<svg xmlns="http://www.w3.org/2000/svg" viewBox="0 0 512 512"><path d="M333 386.3c-23.3 13.7-50 21-77 21-83.4 0-151.3-68-151.3-151.3s68-151.3 151.3-151.3c83.4 0 151.3 68 151.3 151.3 0 44-19.2 85.8-52.5 114.6-3.6 3-4 8.5-1 12 3.2 3.7 8.6 4 12.2 1 37.2-32 58.5-78.6 58.5-127.6 0-93-75.6-168.5-168.5-168.5S87.5 163 87.5 256c0 93 75.6 168.5 168.5 168.5 30.2 0 59.8-8 85.6-23.4 4-2.3 5.5-7.6 3-11.6-2.4-4-7.6-5.5-11.7-3z"/><path d="M256 144c28 0 55 10.3 75.6 29.2 3.5 3.2 9 3 12.2-.6 3.2-3.5 3-9-.6-12-24-22-54.8-34-87.2-34-71.3 0-129.4 58-129.4 129.4 0 71.3 58 129.4 129.4 129.4s129.4-58 129.4-129.4c0-26-7.7-51-22-72.3-2.8-4-8-5-12-2.3s-5 8-2.4 12c12.5 18.4 19 40 19 62.6 0 61.8-50.2 112-112 112S144 318 144 256 194 144 256 144zM256 67c4.8 0 8.6-4 8.6-8.7V8.6c0-4.7-3.8-8.6-8.6-8.6s-8.6 4-8.6 8.6v49.7c0 4.7 3.8 8.6 8.6 8.6zM256 445c-4.8 0-8.6 4-8.6 8.7v49.7c0 4.7 3.8 8.6 8.6 8.6s8.6-4 8.6-8.6v-49.7c0-4.7-3.8-8.6-8.6-8.6zM149.7 89c1.6 2.8 4.5 4.4 7.4 4.4 1.6 0 3-.4 4.4-1.2 4-2.4 5.6-7.6 3.2-11.8l-24.8-43c-2.4-4-7.7-5.5-11.8-3-4 2.3-5.5 7.5-3 11.7l24.7 43zM362.3 423c-2.3-4.2-7.6-5.6-11.7-3.2-4 2.4-5.6 7.6-3.2 11.8l24.8 43c1.6 2.7 4.5 4.3 7.5 4.3 1.5 0 3-.5 4.3-1.3 4-2.4 5.5-7.6 3-11.8l-24.7-43zM37.4 139.8l43 24.8c1.4.8 3 1 4.3 1 3 0 6-1.4 7.5-4.2 2.4-4 1-9.4-3.2-11.7L46 125c-4-2.5-9.3-1-11.7 3-2.4 4-1 9.4 3 11.8zM474.6 372.2l-43-24.8c-4.2-2.4-9.4-1-11.8 3.2-2.4 4-1 9.4 3.2 11.7l43 25c1.3.6 2.8 1 4.2 1 3 0 6-1.5 7.5-4.3 2.4-4 1-9.4-3-11.8zM67 256c0-4.8-4-8.6-8.7-8.6H8.6C4 247.4 0 251.2 0 256s4 8.6 8.6 8.6h49.7c4.7 0 8.6-3.8 8.6-8.6zM503.4 247.4h-49.7c-4.7 0-8.6 3.8-8.6 8.6s4 8.6 8.7 8.6h49.7c4.7 0 8.6-3.8 8.6-8.6s-4-8.6-8.6-8.6zM80.4 347.4l-43 24.8c-4 2.4-5.5 7.7-3 11.8 1.5 2.8 4.4 4.3 7.4 4.3 1.4 0 3-.4 4.3-1.2l43-24.7c4.2-2.3 5.6-7.6 3.2-11.7-2.4-4-7.6-5.6-11.8-3.2zM427.3 165.7c1.4 0 3-.3 4.3-1l43-25c4-2.3 5.5-7.6 3-11.7-2.3-4-7.5-5.5-11.7-3l-43 24.7c-4.2 2.3-5.6 7.6-3.2 11.7 1.6 2.8 4.5 4.3 7.5 4.3zM161.4 419.8c-4-2.4-9.4-1-11.7 3.2L125 466c-2.5 4-1 9.3 3 11.7 1.4.8 2.8 1.2 4.3 1.2 3 0 6-1.7 7.5-4.4l24.8-43c2.4-4.2 1-9.4-3.2-11.8zM350.6 92.2c1.3.8 2.8 1.2 4.3 1.2 2.8 0 5.7-1.6 7.3-4.4L387 46c2.5-4 1-9.3-3-11.7-4-2.4-9.4-1-11.8 3l-24.8 43c-2.4 4.3-1 9.5 3.2 12z"/></svg>