<svg xmlns="http://www.w3.org/2000/svg" viewBox="0 0 512 512"><path d="M187.7 315.7c0 4.7 4 8.6 8.6 8.6h34c4.8 0 8.6-4 8.6-8.6v-51.2c0-4.7-4-8.5-8.6-8.5h-34c-4.8 0-8.7 3.8-8.7 8.5v51.2zm17-42.6H222v34.2h-17.2v-34zM196.3 222h34c4.8 0 8.6-4 8.6-8.7V162c0-4.6-4-8.4-8.6-8.4h-34c-4.8 0-8.7 3.8-8.7 8.5v51.3c0 4.7 4 8.6 8.6 8.6zm8.5-51.3h17v34h-17v-34z"/><path d="M132.4 161L256 86.6 379.6 161c1.4.7 3 1 4.4 1 3 0 5.7-1.3 7.3-4 2.4-4 1-9.3-3-11.7L264.6 72V17h42.7v17h-25.6c-4.7 0-8.5 4-8.5 8.7 0 4.7 4 8.5 8.6 8.5h34c4.8 0 8.7-3.8 8.7-8.5V8.5c0-4.7-4-8.5-8.6-8.5H256c-4.7 0-8.5 3.8-8.5 8.5V72l-124 74.3c-4 2.4-5.2 7.6-2.8 11.7 2.4 4 7.7 5.3 11.7 3zM94 324.3c4.6 0 8.4-4 8.4-8.6v-51.2c0-4.7-3.8-8.5-8.5-8.5H59.6c-4.7 0-8.5 3.8-8.5 8.5v17c0 4.8 3.8 8.6 8.5 8.6s8.6-3.7 8.6-8.4V273h17v42.7c0 4.7 4 8.6 8.6 8.6zM153.6 435.2V187.7c0-4.7-3.8-8.5-8.5-8.5-4.6 0-8.5 3.8-8.5 8.5v247.5c0 4.7 4 8.5 8.6 8.5 4.8 0 8.6-3.8 8.6-8.5z"/><path d="M111 478h290c4.8 0 8.6-4 8.6-8.7s-3.8-8.5-8.5-8.5h-76.7v-85.3h8.5c4.7 0 8.5-4 8.5-8.6s-3.8-8.6-8.5-8.6H179.2c-4.7 0-8.5 3.8-8.5 8.5s3.8 8.5 8.5 8.5h8.5v85.3H111c-4.8 0-8.6 3.8-8.6 8.5s3.8 8.6 8.5 8.6zm153.5-51.3c4.7 0 8.6-4 8.6-8.6s-3.8-8.4-8.5-8.4v-34h42.7v85.2h-42.7v-34zm-59.7-51.2h42.7v34c-4.7 0-8.6 4-8.6 8.6s3.8 8.7 8.5 8.7v34h-42.7v-85.2zM452.3 367H418c-4.6 0-8.4 3.8-8.4 8.5v51.2c0 4.7 3.8 8.5 8.5 8.5h34.3c4.7 0 8.5-3.8 8.5-8.5v-51.2c0-4.7-3.8-8.6-8.5-8.6zm-8.6 51h-17v-34h17v34zM452.3 264.5H418c-4.6 0-8.4 4-8.4 8.6v51.3c0 4.7 3.8 8.5 8.5 8.5h34.3c4.7 0 8.5-3.8 8.5-8.5V273c0-4.6-3.8-8.5-8.5-8.5zm-8.6 51.2h-17v-34h17v34zM435.2 495H76.8c-4.7 0-8.5 3.8-8.5 8.5s3.8 8.5 8.5 8.5h358.4c4.7 0 8.5-3.8 8.5-8.5s-3.8-8.6-8.5-8.6z"/><path d="M503.5 187.7c-4.7 0-8.6 4-8.6 8.6v8.5h-94c-4.6 0-8.5 3.8-8.5 8.5s4 8.6 8.6 8.6h94v281.5c0 4.7 3.8 8.5 8.5 8.5s8.5-3.8 8.5-8.5V196.3c0-4.7-3.8-8.6-8.5-8.6zM273 315.7c0 4.7 4 8.6 8.6 8.6h34c4.8 0 8.7-4 8.7-8.6v-51.2c0-4.7-4-8.5-8.6-8.5h-34c-4.8 0-8.6 3.8-8.6 8.5v51.2zm17-42.6h17.2v34.2h-17v-34zM85.3 418c0-1-.5-110.8-42.6-110.8C.5 307.2 0 417 0 418.2c0 20.5 14.7 37.8 34 41.7v43.5c0 4.7 4 8.5 8.7 8.5 4.7 0 8.5-3.8 8.5-8.5V460c19.4-4 34-21.3 34-42zm-42.6 25.7c-14 0-25.6-11.5-25.6-25.6 0-42.4 11.5-93.7 25.7-93.7 14 0 25.6 51.3 25.6 93.8 0 14.2-11.5 25.7-25.6 25.7zM375.5 435.2v-256c0-4.7-4-8.5-8.6-8.5s-8.6 3.8-8.6 8.5v256c0 4.7 3.8 8.5 8.5 8.5s8.5-3.8 8.5-8.5zM281.6 222h34c4.8 0 8.7-4 8.7-8.7V162c0-4.6-4-8.4-8.6-8.4h-34c-4.8 0-8.6 3.8-8.6 8.5v51.3c0 4.7 4 8.6 8.6 8.6zm8.5-51.3h17.2v34h-17v-34zM8.5 298.7c4.7 0 8.6-4 8.6-8.6v-68h94c4.6 0 8.5-4 8.5-8.7 0-4.7-4-8.5-8.6-8.5H17v-8.5c0-4.7-3.8-8.6-8.5-8.6s-8.5 4-8.5 8.6V290c0 4.8 3.8 8.7 8.5 8.7z"/></svg>