<svg xmlns="http://www.w3.org/2000/svg" viewBox="0 0 360.2 259.3"><path fill="#fff" fill-rule="evenodd" d="M26.4 85.4H9.8v36.8H0V77.7h26.4v7.7zM71.3 99.9a26.6 26.6 0 0 1-1.5 9 21.8 21.8 0 0 1-4.4 7.2 18.7 18.7 0 0 1-6.9 4.8 21.4 21.4 0 0 1-8.9 1.8 21.8 21.8 0 0 1-8.9-1.8 18.3 18.3 0 0 1-6.8-4.8 22 22 0 0 1-4.5-7.2 26.6 26.6 0 0 1-1.5-9 25.6 25.6 0 0 1 1.5-8.9 22 22 0 0 1 4.5-7.2 18.3 18.3 0 0 1 6.8-4.8 21.8 21.8 0 0 1 8.9-1.8 21.6 21.6 0 0 1 15.8 6.6 21.8 21.8 0 0 1 4.4 7.2 26 26 0 0 1 1.5 8.9zm-9.9 0a21.6 21.6 0 0 0-.8-5.9 12 12 0 0 0-2.3-4.5 11.3 11.3 0 0 0-3.7-2.8 13.1 13.1 0 0 0-5-1 13.5 13.5 0 0 0-5 1 11.3 11.3 0 0 0-3.7 2.8 12 12 0 0 0-2.3 4.5 22.5 22.5 0 0 0 0 11.9 12 12 0 0 0 2.3 4.5 11.3 11.3 0 0 0 3.7 2.8 13.5 13.5 0 0 0 5 .9 13.1 13.1 0 0 0 5-.9 11.3 11.3 0 0 0 3.7-2.8 12 12 0 0 0 2.3-4.5 21.8 21.8 0 0 0 .8-6zM92 77.7a24.4 24.4 0 0 1 7.6 1.1 15.6 15.6 0 0 1 5.2 3.1 10.8 10.8 0 0 1 3 4.6 15.6 15.6 0 0 1 1 5.7 16.6 16.6 0 0 1-1 6.1 12.1 12.1 0 0 1-3.1 4.8 14.1 14.1 0 0 1-5.2 3.1 23.7 23.7 0 0 1-7.5 1.1h-5.1v14.9h-9.7V77.7zm0 21.8c2.5 0 4.3-.6 5.4-1.9a8.1 8.1 0 0 0 1.7-5.4 7.7 7.7 0 0 0-.4-2.7 6.7 6.7 0 0 0-1.3-2.2 8.3 8.3 0 0 0-2.2-1.4 10.2 10.2 0 0 0-3.2-.5h-5.1v14.1zM156 99.9a24.4 24.4 0 0 1-1.6 9 20.2 20.2 0 0 1-4.4 7.2 19.1 19.1 0 0 1-6.8 4.8 22.9 22.9 0 0 1-17.8 0 18.7 18.7 0 0 1-6.9-4.8 21.8 21.8 0 0 1-4.4-7.2 26.6 26.6 0 0 1-1.6-9 25.6 25.6 0 0 1 1.6-8.9 21.8 21.8 0 0 1 4.4-7.2 18.7 18.7 0 0 1 6.9-4.8 22.9 22.9 0 0 1 17.8 0 22 22 0 0 1 6.8 4.8 20.2 20.2 0 0 1 4.4 7.2 23.8 23.8 0 0 1 1.6 8.9zm-9.9 0a21.6 21.6 0 0 0-.8-5.9 13.6 13.6 0 0 0-2.3-4.5 12.5 12.5 0 0 0-3.7-2.8 13 13 0 0 0-10 0 10.4 10.4 0 0 0-3.7 2.8 12 12 0 0 0-2.3 4.5 18.3 18.3 0 0 0-.8 5.9 18.6 18.6 0 0 0 .8 6 12 12 0 0 0 2.3 4.5 10.4 10.4 0 0 0 3.7 2.8 14.3 14.3 0 0 0 10 0 12.5 12.5 0 0 0 3.7-2.8 13.6 13.6 0 0 0 2.3-4.5 21.8 21.8 0 0 0 .8-6zM203.5 114.5V128a2.9 2.9 0 0 1-.8 2.1 3.2 3.2 0 0 1-2.2.7h-5.9v-8.6h-28v5.8a2.6 2.6 0 0 1-.9 2.1 3.2 3.2 0 0 1-2.2.7h-5.8v-16.3h4.7l1.4-1.4a14.1 14.1 0 0 0 1.5-2.8 43.6 43.6 0 0 0 1.3-4.5q.6-2.7 1.2-6.6c.3-2.7.6-5.7.8-9.3s.5-7.6.6-12.2h28.1v36.8zm-15.9 0V85.4h-9.3c-.2 3.8-.5 7.3-.9 10.3a70.6 70.6 0 0 1-1.2 8.1 50.1 50.1 0 0 1-1.6 6.2 24.3 24.3 0 0 1-1.9 4.5zM236.4 110.7h.7l.7.5 3.8 4.3a16.9 16.9 0 0 1-6.3 5.3 21.3 21.3 0 0 1-9 1.8 20.1 20.1 0 0 1-8.6-1.8 18.7 18.7 0 0 1-6.4-4.7 21 21 0 0 1-4-7.2 29.4 29.4 0 0 1-1.4-9.1 26.7 26.7 0 0 1 1.5-9.1 21.6 21.6 0 0 1 4.3-7.2 18.5 18.5 0 0 1 6.6-4.7 21.5 21.5 0 0 1 8.5-1.7 21.2 21.2 0 0 1 4.4.5 22.2 22.2 0 0 1 3.9 1.2 13.5 13.5 0 0 1 3.3 1.9 20.4 20.4 0 0 1 2.7 2.3l-3.3 4.7a2.7 2.7 0 0 1-.7.8 2.1 2.1 0 0 1-1.2.3 1.8 1.8 0 0 1-1-.2l-1-.6-1.1-.8-1.5-.7a8.5 8.5 0 0 0-1.9-.6 11.2 11.2 0 0 0-2.7-.3 10.5 10.5 0 0 0-4.4 1 8.3 8.3 0 0 0-3.4 2.8 11.5 11.5 0 0 0-2.3 4.4 22.3 22.3 0 0 0-.8 6 19.1 19.1 0 0 0 .9 6.1 13.7 13.7 0 0 0 2.4 4.5 10 10 0 0 0 3.5 2.7 9.1 9.1 0 0 0 4.3 1l2.4-.2a7.8 7.8 0 0 0 2.1-.4 5.6 5.6 0 0 0 1.7-.9 7 7 0 0 0 1.7-1.3l.8-.5a1.1 1.1 0 0 1 .8-.1zM283.8 122.2H275a3.8 3.8 0 0 1-2.2-.7 6.7 6.7 0 0 1-1.7-2.2l-6.9-13.8a4.1 4.1 0 0 0-1.6-1.8 4.4 4.4 0 0 0-2.1-.4h-4.4v18.9h-9.7V77.7h9.7v18h3.6a3.4 3.4 0 0 0 1.8-.4 3.4 3.4 0 0 0 1.5-1.6l7.6-13.4a5.8 5.8 0 0 1 1.6-1.9 4.2 4.2 0 0 1 2.3-.7h8.3l-10.2 17.5a6.7 6.7 0 0 1-1.7 2 7.1 7.1 0 0 1-2.2 1.3 8.3 8.3 0 0 1 3.2 1.8 16.8 16.8 0 0 1 2.6 3.5zM327.3 99.9a24.4 24.4 0 0 1-1.6 9 20.2 20.2 0 0 1-4.4 7.2 18.3 18.3 0 0 1-6.8 4.8 21.4 21.4 0 0 1-8.9 1.8 21.8 21.8 0 0 1-8.9-1.8 18.7 18.7 0 0 1-6.9-4.8 21.8 21.8 0 0 1-4.4-7.2 26.6 26.6 0 0 1-1.5-9 25.6 25.6 0 0 1 1.5-8.9 21.8 21.8 0 0 1 4.4-7.2 18.7 18.7 0 0 1 6.9-4.8 21.8 21.8 0 0 1 8.9-1.8 21.4 21.4 0 0 1 8.9 1.8 20.9 20.9 0 0 1 6.8 4.8 20.2 20.2 0 0 1 4.4 7.2 23.8 23.8 0 0 1 1.6 8.9zm-9.9 0a21.6 21.6 0 0 0-.8-5.9 13.6 13.6 0 0 0-2.3-4.5 11.3 11.3 0 0 0-3.7-2.8 13 13 0 0 0-10 0 10.4 10.4 0 0 0-3.7 2.8 12 12 0 0 0-2.3 4.5 18.3 18.3 0 0 0-.8 5.9 18.6 18.6 0 0 0 .8 6 12 12 0 0 0 2.3 4.5 10.4 10.4 0 0 0 3.7 2.8 14.3 14.3 0 0 0 10 0 11.3 11.3 0 0 0 3.7-2.8 13.6 13.6 0 0 0 2.3-4.5 21.8 21.8 0 0 0 .8-6zM343 85.7V96h13.2v7.7H343v10.6h17.2v7.9h-27V77.7h27v8H343zM359.5 62.9h-9.2v-12h-58.5a4.8 4.8 0 0 1-4.6-4.9V24.9h-31.3v12.6a4.7 4.7 0 0 1-4.6 4.9h-38.8a4.8 4.8 0 0 1-4.6-4.9V9.7h-49.3v38.1a4.7 4.7 0 0 1-4.6 4.8h-49.9a4.6 4.6 0 0 1-4.6-4.8V26.9H38.4v15.6a4.8 4.8 0 0 1-4.6 4.9H9.1v15.5H0V42.5a4.6 4.6 0 0 1 4.5-4.8h24.7V22.1a4.8 4.8 0 0 1 4.6-4.9h70.3a4.7 4.7 0 0 1 4.5 4.9v20.8h40.8V4.8A4.8 4.8 0 0 1 154 0h58.5a4.7 4.7 0 0 1 4.5 4.8v27.9h29.8V20.1a4.7 4.7 0 0 1 4.5-4.9h40.5a4.7 4.7 0 0 1 4.5 4.9v21.1h58.6a4.8 4.8 0 0 1 4.6 4.8zM341.9 154a2.4 2.4 0 0 1-2.4-2.4v-6.1a2.3 2.3 0 0 0-2.3-2.4h-5.6a2.3 2.3 0 0 0-2.3 2.4v6.1a2.4 2.4 0 0 1-2.4 2.4h-5.6a2.3 2.3 0 0 1-2.3-2.4v-6.1a2.4 2.4 0 0 0-2.3-2.4H311a2.3 2.3 0 0 0-2.3 2.4v6.1a2.4 2.4 0 0 1-2.3 2.4h-5.7a2.3 2.3 0 0 1-2.3-2.4v-6.1a2.4 2.4 0 0 0-2.3-2.4h-5.7a2.3 2.3 0 0 0-2.3 2.4v6.1a2.3 2.3 0 0 1-2.3 2.4h-5.7a2.3 2.3 0 0 1-2.3-2.4v-6.1a2.3 2.3 0 0 0-2.3-2.4h-5.7a2.4 2.4 0 0 0-2.3 2.4v6.1a2.3 2.3 0 0 1-2.3 2.4h-5.7a2.4 2.4 0 0 1-2.3-2.4v-6.1a2.3 2.3 0 0 0-2.3-2.4h-5.7a2.4 2.4 0 0 0-2.3 2.4v6.1a2.3 2.3 0 0 1-2.3 2.4H239a2.4 2.4 0 0 1-2.4-2.4v-6.1a2.3 2.3 0 0 0-2.3-2.4h-5.6a2.4 2.4 0 0 0-2.4 2.4v6.1a2.3 2.3 0 0 1-2.3 2.4h-5.6a2.3 2.3 0 0 1-2.3-2.4v-6.1a2.4 2.4 0 0 0-2.4-2.4h-5.6a2.3 2.3 0 0 0-2.3 2.4v6.1a2.4 2.4 0 0 1-2.3 2.4h-5.7a2.3 2.3 0 0 1-2.3-2.4v-6.1a2.4 2.4 0 0 0-2.3-2.4h-5.7a2.3 2.3 0 0 0-2.3 2.4v6.1a2.3 2.3 0 0 1-2.3 2.4h-5.7a2.3 2.3 0 0 1-2.3-2.4v-6.1a2.3 2.3 0 0 0-2.3-2.4h-5.7a2.4 2.4 0 0 0-2.3 2.4v6.1a2.3 2.3 0 0 1-2.3 2.4h-5.7a2.4 2.4 0 0 1-2.3-2.4v-6.1a2.3 2.3 0 0 0-2.3-2.4h-5.7a2.4 2.4 0 0 0-2.3 2.4v6.1a2.3 2.3 0 0 1-2.3 2.4H136a2.4 2.4 0 0 1-2.3-2.4v-6.1a2.3 2.3 0 0 0-2.3-2.4h-5.6a2.4 2.4 0 0 0-2.4 2.4v6.1a2.3 2.3 0 0 1-2.3 2.4h-5.6a2.3 2.3 0 0 1-2.3-2.4v-6.1a2.4 2.4 0 0 0-2.4-2.4h-5.6a2.3 2.3 0 0 0-2.3 2.4v6.1a2.4 2.4 0 0 1-2.3 2.4h-5.7a2.3 2.3 0 0 1-2.3-2.4v-6.1a2.4 2.4 0 0 0-2.3-2.4h-5.7a2.3 2.3 0 0 0-2.3 2.4v6.1A2.4 2.4 0 0 1 80 154h-5.7a2.3 2.3 0 0 1-2.3-2.4v-6.1a2.3 2.3 0 0 0-2.3-2.4H64a2.3 2.3 0 0 0-2.3 2.4v6.1a2.3 2.3 0 0 1-2.3 2.4h-5.7a2.4 2.4 0 0 1-2.3-2.4v-6.1a2.3 2.3 0 0 0-2.3-2.4h-5.7a2.4 2.4 0 0 0-2.3 2.4v6.1a2.3 2.3 0 0 1-2.3 2.4h-5.7a2.4 2.4 0 0 1-2.3-2.4v-6.1a2.3 2.3 0 0 0-2.3-2.4h-5.6a2.4 2.4 0 0 0-2.4 2.4v6.1a2.3 2.3 0 0 1-2.3 2.4h-5.6a2.3 2.3 0 0 1-2.3-2.4v-6.1a2.4 2.4 0 0 0-2.4-2.4H2.3a2.3 2.3 0 0 0-2.3 2.4v6.1a2.3 2.3 0 0 0 2.3 2.4h5.6a2.5 2.5 0 0 1 2.4 2.5v6a2.4 2.4 0 0 0 2.3 2.5h5.6a2.4 2.4 0 0 0 2.3-2.5v-6a2.5 2.5 0 0 1 2.4-2.5h5.6a2.4 2.4 0 0 1 2.3 2.5v6a2.4 2.4 0 0 0 2.3 2.5h5.7a2.4 2.4 0 0 0 2.3-2.5v-6a2.4 2.4 0 0 1 2.3-2.5h5.7a2.4 2.4 0 0 1 2.3 2.5v6a2.4 2.4 0 0 0 2.3 2.5h5.7a2.4 2.4 0 0 0 2.3-2.5v-6A2.4 2.4 0 0 1 64 154h5.7a2.4 2.4 0 0 1 2.3 2.5v6a2.4 2.4 0 0 0 2.3 2.5H80a2.4 2.4 0 0 0 2.3-2.5v-6a2.4 2.4 0 0 1 2.3-2.5h5.7a2.4 2.4 0 0 1 2.3 2.5v6a2.4 2.4 0 0 0 2.3 2.5h5.7a2.4 2.4 0 0 0 2.3-2.5v-6a2.4 2.4 0 0 1 2.3-2.5h5.6a2.5 2.5 0 0 1 2.4 2.5v6a2.4 2.4 0 0 0 2.3 2.5h5.6a2.4 2.4 0 0 0 2.3-2.5v-6a2.5 2.5 0 0 1 2.4-2.5h5.6a2.4 2.4 0 0 1 2.3 2.5v6a2.4 2.4 0 0 0 2.3 2.5h5.7a2.4 2.4 0 0 0 2.3-2.5v-6a2.4 2.4 0 0 1 2.3-2.5h5.7a2.4 2.4 0 0 1 2.3 2.5v6a2.4 2.4 0 0 0 2.3 2.5h5.7a2.4 2.4 0 0 0 2.3-2.5v-6a2.4 2.4 0 0 1 2.3-2.5h5.7a2.4 2.4 0 0 1 2.3 2.5v6a2.4 2.4 0 0 0 2.3 2.5h5.7a2.4 2.4 0 0 0 2.3-2.5v-6a2.4 2.4 0 0 1 2.3-2.5h5.7a2.4 2.4 0 0 1 2.3 2.5v6a2.4 2.4 0 0 0 2.3 2.5h5.7a2.4 2.4 0 0 0 2.3-2.5v-6a2.4 2.4 0 0 1 2.3-2.5h5.6a2.5 2.5 0 0 1 2.4 2.5v6a2.4 2.4 0 0 0 2.3 2.5h5.6a2.4 2.4 0 0 0 2.3-2.5v-6a2.5 2.5 0 0 1 2.4-2.5h5.6a2.4 2.4 0 0 1 2.3 2.5v6a2.5 2.5 0 0 0 2.4 2.5h5.6a2.4 2.4 0 0 0 2.3-2.5v-6a2.4 2.4 0 0 1 2.3-2.5h5.7a2.4 2.4 0 0 1 2.3 2.5v6a2.4 2.4 0 0 0 2.3 2.5h5.7a2.4 2.4 0 0 0 2.3-2.5v-6a2.4 2.4 0 0 1 2.3-2.5h5.7a2.4 2.4 0 0 1 2.3 2.5v6a2.4 2.4 0 0 0 2.3 2.5h5.7a2.4 2.4 0 0 0 2.3-2.5v-6a2.4 2.4 0 0 1 2.3-2.5h5.7a2.4 2.4 0 0 1 2.3 2.5v6a2.4 2.4 0 0 0 2.3 2.5h5.7a2.4 2.4 0 0 0 2.3-2.5v-6a2.4 2.4 0 0 1 2.3-2.5h5.7a2.4 2.4 0 0 1 2.3 2.5v6a2.4 2.4 0 0 0 2.3 2.5h5.6a2.5 2.5 0 0 0 2.4-2.5v-6a2.4 2.4 0 0 1 2.3-2.5h5.6a2.4 2.4 0 0 1 2.3 2.5v6a2.5 2.5 0 0 0 2.4 2.5h5.6a2.4 2.4 0 0 0 2.3-2.5v-6a2.4 2.4 0 0 1 2.3-2.5h5.7a2.3 2.3 0 0 0 2.3-2.4v-6.1a2.3 2.3 0 0 0-2.3-2.4h-5.7a2.4 2.4 0 0 0-2.3 2.4v6.1a2.3 2.3 0 0 1-2.3 2.4zM45.5 220.2a15.7 15.7 0 0 0-5.5-11.6 24.8 24.8 0 0 0-16.9-5.6c-9.8 0-15.5 3.6-18.7 7.8a20.9 20.9 0 0 0-4 12h8.5a3.4 3.4 0 0 0 3.1-2.5c1-4.1 4.7-7.2 11.1-7.2s10.9 4.3 11 8.4-1.6 5.2-6.1 8.8-12.2 8.6-24.6 16.7a6.4 6.4 0 0 0-3.4 6.1v6.2h42.3a3.5 3.5 0 0 0 3.3-3.6l-.1-6.5h-28c9.5-6.3 16.5-10.5 21.1-14.6s6.9-8.3 6.9-14.4zM101.4 220.1a16.1 16.1 0 0 0-5.5-11.7 25.4 25.4 0 0 0-17-5.5c-9.8 0-15.5 3.6-18.7 7.8a20.9 20.9 0 0 0-4 12h8.5a3.3 3.3 0 0 0 3.1-2.5c1-4.1 4.7-7.2 11.1-7.2s11.1 4.3 11.1 8.4-1.5 5.2-6.1 8.9-12.3 8.5-24.7 16.6a6.5 6.5 0 0 0-3.4 6.2v6.2h42.5a3.5 3.5 0 0 0 3.3-3.6v-6.5H73.4c9.6-6.3 16.5-10.6 21.2-14.7s6.9-8.3 6.8-14.4zM157.6 220a15.9 15.9 0 0 0-5.5-11.7 25.5 25.5 0 0 0-17.1-5.6c-9.9.1-15.6 3.7-18.8 7.9a20.9 20.9 0 0 0-4 12h8.5a3.4 3.4 0 0 0 3.2-2.5c1-4.1 4.7-7.2 11.1-7.2s11.1 4.3 11.1 8.4-1.5 5.2-6 8.9-12.3 8.6-24.8 16.7a6.3 6.3 0 0 0-3.4 6.2v6.2h42.8a3.5 3.5 0 0 0 3.2-3.6l-.1-6.6h-28.2c9.5-6.3 16.5-10.5 21.2-14.7s6.9-8.3 6.8-14.4zM245.6 219.9a16.6 16.6 0 0 0-5.7-11.8 25.7 25.7 0 0 0-17.3-5.6c-9.9.1-15.6 3.7-18.8 7.9a20.9 20.9 0 0 0-3.9 12.1h8.5a3.3 3.3 0 0 0 3.2-2.6c1-4.1 4.7-7.2 11.1-7.2s11.3 4.4 11.3 8.5-1.4 5.2-6.1 8.9-12.3 8.6-24.8 16.7c-1.6 1.1-3.5 2.4-3.5 6.2l.1 6.2h43a3.4 3.4 0 0 0 3.3-3.5l-.1-6.6h-28.5c9.6-6.4 16.7-10.6 21.3-14.8s6.9-8.3 6.9-14.4zM302.4 219.8a15.9 15.9 0 0 0-5.7-11.8 25.7 25.7 0 0 0-17.3-5.6c-10 0-15.8 3.6-19 7.9a20.9 20.9 0 0 0-3.9 12.1h8.6a3.4 3.4 0 0 0 3.2-2.6c1-4.1 4.7-7.2 11.2-7.2s11.3 4.4 11.3 8.5-1.4 5.2-6.1 8.9-12.4 8.6-24.9 16.8a6.5 6.5 0 0 0-3.5 6.2l.1 6.2h43.2a3.4 3.4 0 0 0 3.3-3.6l-.1-6.6h-28.5c9.6-6.3 16.6-10.6 21.3-14.8s6.9-8.3 6.8-14.4zM359.6 219.7a16.5 16.5 0 0 0-5.9-11.8 25.6 25.6 0 0 0-17.5-5.6c-10 0-15.7 3.6-18.9 7.9a20.2 20.2 0 0 0-3.9 12.1h8.6a3.4 3.4 0 0 0 3.2-2.6c1-4.1 4.7-7.2 11.2-7.3s11.4 4.5 11.5 8.6-1.5 5.2-6.2 8.9-12.4 8.7-25 16.8c-1.6 1.1-3.5 2.5-3.4 6.3l.1 6.2h43.4a3.3 3.3 0 0 0 3.3-3.6l-.1-6.6h-28.7c9.6-6.4 16.7-10.6 21.4-14.8s7-8.4 6.9-14.5zM179.4 226.5a7.5 7.5 0 0 0-7.6 7.7 7.7 7.7 0 1 0 7.6-7.7z"/></svg>