<svg xmlns="http://www.w3.org/2000/svg" viewBox="0 0 217.1 142.6"><g fill="#fff">
  <path d="M57.4,64.3a4,4,0,0,0,1-1.5,6.8,6.8,0,0,0,.3-2.2V54.8H70.8v9.5h1.3v5.5H69.3V66.9H59.4v2.8H56.5V64.3Zm10.3,0V57.5h-6v3.7a6.3,6.3,0,0,1-.3,1.8,5.4,5.4,0,0,1-.6,1.3ZM214,57.5h-.2l-7.1,9.5h-5.1V54.8h3.1v9.5h.2l7.2-9.5h5V66.9H214Zm-18.4,9.5h-5.3a7.5,7.5,0,0,1-2.6-.4,2.5,2.5,0,0,1-1.4-1.4,6.7,6.7,0,0,1-.4-2.6V59.2a6.9,6.9,0,0,1,.5-2.7,2.6,2.6,0,0,1,1.5-1.4,8.4,8.4,0,0,1,2.8-.4h4.6a7.7,7.7,0,0,1,2.6.3,2.8,2.8,0,0,1,1.6,1.3A5,5,0,0,1,200,59h-3.2a1.5,1.5,0,0,0-.5-1.2,2.7,2.7,0,0,0-1.6-.3h-5.1a.8.8,0,0,0-.5.5,3.4,3.4,0,0,0-.2,1.3v2.9a3.3,3.3,0,0,0,.2,1.3,1,1,0,0,0,.6.6l1.3.2H196a.9.9,0,0,0,.6-.4,2.6,2.6,0,0,0,.2-1H200a7.6,7.6,0,0,1-.4,2.6,2.3,2.3,0,0,1-1.3,1.3,7.4,7.4,0,0,1-2.7.4Zm-21.9-7.7h1.5l5.2-4.4H185l-7.1,5.7,7.4,6.4h-4.6l-5.5-5.1h-1.5v5.1h-3.1V54.8h3.1Zm-8.9,4.7h-6.8l-1.5,3h-3.6l6.4-12.1h4.4l6.4,12.1h-3.7Zm-5.6-2.5h4.3l-2.1-4.1Zm-11.5-4v9.5h-3.1V57.5h-4.9V54.8h13v2.6Zm-24.5-.1v2.3h9V62h-9v2.4h9.3v2.5H120.2V54.8h12.4v2.5Zm-4.8,5.4a7.5,7.5,0,0,1-.2,1.9,2.8,2.8,0,0,1-.7,1.3,2.8,2.8,0,0,1-1.4.7l-2.1.2h-5.2l-2.1-.2a3.2,3.2,0,0,1-1.4-.8,3.1,3.1,0,0,1-.8-1.3,6.9,6.9,0,0,1-.2-1.9V59.2a7.2,7.2,0,0,1,.2-2.1,2.9,2.9,0,0,1,.8-1.4,3.3,3.3,0,0,1,1.4-.7,8.9,8.9,0,0,1,2.1-.2H114a6.8,6.8,0,0,1,2.5.4,2.6,2.6,0,0,1,1.4,1.4,5.9,5.9,0,0,1,.5,2.6Zm-11-.3a3.2,3.2,0,0,0,.2,1.1,1,1,0,0,0,.6.5,3.9,3.9,0,0,0,1.3.1h3.7a4.2,4.2,0,0,0,1.3-.1.9.9,0,0,0,.6-.5,3.4,3.4,0,0,0,.2-1.2v-3a3.1,3.1,0,0,0-.2-1.2,1.1,1.1,0,0,0-.6-.6h-5l-1.3.2a.9.9,0,0,0-.6.5,3.4,3.4,0,0,0-.2,1.3ZM92,59.2h1.5l5.2-4.4h4.7l-7.1,5.7,7.4,6.4H99l-5.5-5.1H92v5.1H89V54.8H92Zm-9.1,7.7H77.7a7.6,7.6,0,0,1-2.6-.4,2.6,2.6,0,0,1-1.4-1.4,6.7,6.7,0,0,1-.4-2.6V59.2a6.9,6.9,0,0,1,.5-2.7,2.6,2.6,0,0,1,1.5-1.4,8.5,8.5,0,0,1,2.8-.4h4.6a7.7,7.7,0,0,1,2.6.3,2.8,2.8,0,0,1,1.6,1.3,5,5,0,0,1,.6,2.6H84.1a1.5,1.5,0,0,0-.5-1.2,2.7,2.7,0,0,0-1.6-.3h-5a.8.8,0,0,0-.6.5,4.1,4.1,0,0,0-.2,1.3v2.9a2.8,2.8,0,0,0,.2,1.3,1,1,0,0,0,.6.6l1.3.2h4.9a.9.9,0,0,0,.6-.4,2.2,2.2,0,0,0,.2-1h3.2a7,7,0,0,1-.4,2.6,2.3,2.3,0,0,1-1.3,1.3,7.4,7.4,0,0,1-2.7.4ZM55.4,62.8a7.4,7.4,0,0,1-.2,1.9,2.8,2.8,0,0,1-.7,1.3,2.9,2.9,0,0,1-1.4.7l-2.1.2H45.8l-2-.2a3,3,0,0,1-1.4-.8,2.6,2.6,0,0,1-.8-1.3,6,6,0,0,1-.3-1.9V59.2a7.3,7.3,0,0,1,.3-2.1,2.8,2.8,0,0,1,.8-1.4,3.6,3.6,0,0,1,1.4-.7,8.8,8.8,0,0,1,2.1-.2H51a6.9,6.9,0,0,1,2.5.4A2.6,2.6,0,0,1,55,56.6a6.3,6.3,0,0,1,.5,2.6Zm-11-.3a2.7,2.7,0,0,0,.2,1.1,1.1,1.1,0,0,0,.6.5h5a4.4,4.4,0,0,0,1.4-.1,1,1,0,0,0,.6-.5,3.4,3.4,0,0,0,.2-1.2v-3a3.1,3.1,0,0,0-.2-1.2,1,1,0,0,0-.6-.6h-5l-1.3.2a.9.9,0,0,0-.6.5,3.3,3.3,0,0,0-.2,1.3Zm-13.6,1v3.5H27.7V54.8h8.2l2,.2a3.3,3.3,0,0,1,1.3.8,2.9,2.9,0,0,1,.7,1.3,6.5,6.5,0,0,1,.3,2,5.8,5.8,0,0,1-.5,2.5A2.7,2.7,0,0,1,38.3,63a5.4,5.4,0,0,1-2.4.5Zm0-2.6h4.6l1-.2a.9.9,0,0,0,.5-.5,3.2,3.2,0,0,0,.1-1,2,2,0,0,0-.3-1.3,1.9,1.9,0,0,0-1.4-.4H30.8Zm-4.6,2a7.4,7.4,0,0,1-.2,1.9,2.8,2.8,0,0,1-.7,1.3,2.8,2.8,0,0,1-1.4.7l-2.1.2H16.6l-2-.2a3,3,0,0,1-1.4-.8,2.8,2.8,0,0,1-.8-1.3,6,6,0,0,1-.3-1.9V59.2a7.3,7.3,0,0,1,.3-2.1,3.1,3.1,0,0,1,.8-1.4,3.6,3.6,0,0,1,1.4-.7,8.8,8.8,0,0,1,2.1-.2h5.2a6.9,6.9,0,0,1,2.5.4,2.6,2.6,0,0,1,1.4,1.4,6.3,6.3,0,0,1,.5,2.6Zm-11-.3a2.7,2.7,0,0,0,.2,1.1,1.1,1.1,0,0,0,.6.5h5a4.4,4.4,0,0,0,1.4-.1,1,1,0,0,0,.6-.5,3.4,3.4,0,0,0,.2-1.2v-3a3.1,3.1,0,0,0-.2-1.2,1.1,1.1,0,0,0-.6-.6h-5l-1.3.2a.9.9,0,0,0-.6.5,3.3,3.3,0,0,0-.2,1.3Zm-11.8-5v9.5H.2V54.8H10.7v2.6Z"/><rect x="15.4" y="73" width="3.1" height="3.06"/><rect x="27.7" y="73" width="3.1" height="3.06"/><rect x="39.9" y="73" width="3.1" height="3.06"/><rect x="52.1" y="73" width="3" height="3.06"/><rect x="64.3" y="73" width="3.1" height="3.06"/><rect x="76.6" y="73" width="3.1" height="3.06"/><rect x="88.8" y="73" width="3.1" height="3.06"/><rect x="101" y="73" width="3.1" height="3.06"/><rect x="113.2" y="73" width="3.1" height="3.06"/><rect x="125.5" y="73" width="3" height="3.06"/><rect x="137.7" y="73" width="3.1" height="3.06"/><rect x="149.9" y="73" width="3.1" height="3.06"/><rect x="162.1" y="73" width="3.1" height="3.06"/><rect x="174.3" y="73" width="3.1" height="3.06"/><rect x="186.5" y="73" width="3.1" height="3.06"/><rect x="198.8" y="73" width="3.1" height="3.06"/><rect x="211" y="73" width="3.1" height="3.06"/><rect x="12.4" y="76.1" width="3.1" height="3.06"/><rect x="24.6" y="76.1" width="3" height="3.06"/><rect x="36.9" y="76.1" width="3.1" height="3.06"/><rect x="49.1" y="76.1" width="3.1" height="3.06"/><rect x="61.3" y="76.1" width="3.1" height="3.06"/><rect x="73.5" y="76.1" width="3.1" height="3.06"/><rect x="85.7" y="76.1" width="3.1" height="3.06"/><rect x="98" y="76.1" width="3" height="3.06"/><rect x="110.2" y="76.1" width="3.1" height="3.06"/><rect x="122.4" y="76.1" width="3.1" height="3.06"/><rect x="134.6" y="76.1" width="3.1" height="3.06"/><rect x="146.8" y="76.1" width="3.1" height="3.06"/><rect x="159.1" y="76.1" width="3.1" height="3.06"/><rect x="171.3" y="76.1" width="3.1" height="3.06"/><rect x="183.5" y="76.1" width="3.1" height="3.06"/><rect x="195.7" y="76.1" width="3.1" height="3.06"/><rect x="207.9" y="76.1" width="3.1" height="3.06"/><rect x="9.3" y="73" width="3.1" height="3.06"/><rect x="21.5" y="73" width="3.1" height="3.06"/><rect x="33.8" y="73" width="3.1" height="3.06"/><rect x="46" y="73" width="3" height="3.06"/><rect x="58.2" y="73" width="3.1" height="3.06"/><rect x="70.4" y="73" width="3.1" height="3.06"/><rect x="82.7" y="73" width="3.1" height="3.06"/><rect x="94.9" y="73" width="3.1" height="3.06"/><rect x="107.1" y="73" width="3.1" height="3.06"/><rect x="119.3" y="73" width="3.1" height="3.06"/><rect x="131.6" y="73" width="3.1" height="3.06"/><rect x="143.8" y="73" width="3.1" height="3.06"/><rect x="156" y="73" width="3.1" height="3.06"/><rect x="168.2" y="73" width="3.1" height="3.06"/><rect x="180.5" y="73" width="3" height="3.06"/><rect x="192.7" y="73" width="3.1" height="3.06"/><rect x="204.9" y="73" width="3.1" height="3.06"/><rect x="6.3" y="76.1" width="3.1" height="3.06"/><rect x="18.5" y="76.1" width="3.1" height="3.06"/><rect x="30.7" y="76.1" width="3.1" height="3.06"/><rect x="42.9" y="76.1" width="3.1" height="3.06"/><rect x="55.2" y="76.1" width="3.1" height="3.06"/><rect x="67.4" y="76.1" width="3" height="3.06"/><rect x="79.6" y="76.1" width="3.1" height="3.06"/><rect x="91.8" y="76.1" width="3.1" height="3.06"/><rect x="104.1" y="76.1" width="3.1" height="3.06"/><rect x="116.3" y="76.1" width="3.1" height="3.06"/><rect x="128.5" y="76.1" width="3.1" height="3.06"/><rect x="140.7" y="76.1" width="3.1" height="3.06"/><rect x="153" y="76.1" width="3.1" height="3.06"/><rect x="165.2" y="76.1" width="3.1" height="3.06"/><rect x="177.4" y="76.1" width="3.1" height="3.06"/><rect x="189.6" y="76.1" width="3.1" height="3.06"/><rect x="201.9" y="76.1" width="3" height="3.06"/><rect x="214.1" y="76.1" width="3.1" height="3.06"/><rect x="3.2" y="73" width="3.1" height="3.06"/><rect x="0.2" y="76.1" width="3.1" height="3.06"/><polygon points="214 27.1 199.8 27.1 199.8 22.5 185.9 22.5 185.9 27.1 170 27.1 170 37.3 152.8 37.4 152.9 12.5 118.4 12.5 118.4 31.3 104.4 31.3 104.4 22.2 97.9 22.2 98 12.8 70.7 12.8 70.6 39 58.6 39 58.5 28.7 55.1 28.7 55.1 3.1 40.1 3.1 40.1 9.1 26.2 9.1 26.1 41.8 12 41.8 12 35.1 3.1 35.1 3.2 50 0.1 50 0 32.1 15.1 32 15.1 38.7 23 38.7 23.1 6 37 6 37 0.1 58.2 0 58.2 25.6 61.6 25.6 61.6 35.9 67.6 35.9 67.6 9.8 101.1 9.7 101.1 19.1 107.4 19.1 107.5 28.2 115.4 28.2 115.4 9.4 155.9 9.4 155.9 34.3 166.9 34.2 166.9 24 182.8 24 182.8 19.4 202.8 19.4 202.8 24.1 217.1 24 217.1 49.7 214.1 49.7 214 27.1"/><path d="M65.8,142.5H94.1v-7.4H77.8c.5-3.2,8.2-8.2,10.8-10.9a19,19,0,0,0,3.6-4.9,15.1,15.1,0,0,0,1.5-6.7c.1-7.1-5.5-11.2-13.2-11.2-5.1,0-8.7,1.7-10.9,4.3a14.8,14.8,0,0,0-3.4,9.9H76c.1-5,1.3-6.9,4-6.9s3.6,1.7,3.6,4.3a9.3,9.3,0,0,1-2.2,6c-2.4,2.4-6.3,5.2-9.6,8.9a22,22,0,0,0-6,14.7Zm-33.1-.1H60.7c.1-2.5.1-4.9.1-7.4H44.6c.5-3.2,8.2-8.1,10.7-10.9a19.5,19.5,0,0,0,3.6-4.9,15.7,15.7,0,0,0,1.5-6.6c.1-7.1-5.4-11.1-12.9-11.1-5,0-8.6,1.6-10.9,4.2a14.9,14.9,0,0,0-3.4,9.8h9.7c.1-5,1.4-6.8,4-6.8s3.6,1.7,3.5,4.3a9.2,9.2,0,0,1-2.2,5.9c-2.4,2.4-6.3,5.1-9.5,8.8a21.9,21.9,0,0,0-6,14.6ZM.2,142.2H27.8c.1-2.4.1-4.9.1-7.3h-16c.5-3.2,8.1-8.1,10.6-10.8a18.4,18.4,0,0,0,3.5-4.8,15.6,15.6,0,0,0,1.5-6.6c.1-7-5.2-11-12.7-11-5,0-8.5,1.6-10.7,4.2a14.9,14.9,0,0,0-3.4,9.8h9.5c.1-5,1.4-6.7,4-6.8s3.5,1.7,3.4,4.2a9.1,9.1,0,0,1-2.2,5.9c-2.4,2.4-6.2,5.1-9.4,8.8a22.1,22.1,0,0,0-6,14.5Z"/><path d="M110.7,117.1a5.1,5.1,0,0,1,5,5.2,5,5,0,0,1-5.2,4.9,5.1,5.1,0,0,1-5-5.2,5.1,5.1,0,0,1,5.2-4.9Z"/><path d="M188.5,142.5h28.3v-7.4H200.5c.5-3.2,8.2-8.2,10.8-10.9a19.8,19.8,0,0,0,3.6-4.9,15.5,15.5,0,0,0,1.5-6.7c.1-7.1-5.5-11.2-13.2-11.2-5.1,0-8.7,1.7-10.9,4.3a15,15,0,0,0-3.4,9.9h9.8c.1-5,1.3-6.9,4-6.9s3.6,1.7,3.6,4.3a9.2,9.2,0,0,1-2.2,6c-2.4,2.4-6.3,5.2-9.6,8.9a22,22,0,0,0-6.1,14.7Zm-33.1-.1h27.9c0-2.5.1-4.9.1-7.4H167.4c.5-3.2,8.1-8.1,10.7-10.9a18.2,18.2,0,0,0,3.6-4.9,14.9,14.9,0,0,0,1.5-6.6c.1-7.1-5.4-11.1-12.9-11.1-5,0-8.6,1.6-10.9,4.2a15.1,15.1,0,0,0-3.4,9.8h9.7c.1-5,1.3-6.8,3.9-6.8s3.6,1.7,3.5,4.3A9.2,9.2,0,0,1,171,119c-2.4,2.4-6.3,5.1-9.5,8.8a22,22,0,0,0-6,14.6Zm-32.6-.1h27.6c0-2.4.1-4.9.1-7.3h-16c.5-3.2,8.1-8.1,10.6-10.8a18.3,18.3,0,0,0,3.5-4.8,15.5,15.5,0,0,0,1.5-6.6c.1-7-5.2-11-12.7-11-5,0-8.5,1.6-10.7,4.2a15.2,15.2,0,0,0-3.4,9.8H133c.1-5,1.4-6.7,3.9-6.8s3.5,1.7,3.5,4.2a9.2,9.2,0,0,1-2.2,5.9c-2.4,2.4-6.2,5.1-9.4,8.8a22.3,22.3,0,0,0-6,14.5Z"/>
</g></svg>
